<svg xmlns="http://www.w3.org/2000/svg" xmlns:xlink="http://www.w3.org/1999/xlink" width="16" height="20" viewBox="0 0 16 20">
  <defs>
    <linearGradient id="linear-gradient" x1="0.5" x2="0.5" y2="1" gradientUnits="objectBoundingBox">
      <stop offset="0" stop-color="#f5af19"/>
      <stop offset="1" stop-color="#f12711"/>
    </linearGradient>
  </defs>
  <g id="Group_16" data-name="Group 16" transform="translate(-4 -2)">
    <circle id="Ellipse_2" data-name="Ellipse 2" cx="1.5" cy="1.5" r="1.5" transform="translate(10.5 8)" fill="url(#linear-gradient)"/>
    <path id="Path_30" data-name="Path 30" d="M12,2A8,8,0,0,0,4,9.92c0,5.48,7.05,11.58,7.35,11.84a1,1,0,0,0,1.3,0C13,21.5,20,15.4,20,9.92A8,8,0,0,0,12,2Zm0,11a3.5,3.5,0,1,1,3.5-3.5A3.5,3.5,0,0,1,12,13Z" fill="url(#linear-gradient)"/>
  </g>
</svg>
