<svg width="55" height="55" viewBox="0 0 55 55" fill="none" xmlns="http://www.w3.org/2000/svg">
<g clip-path="url(#clip0)">
<path d="M26.6898 0C18.3016 0 10.4853 3.76516 5.24263 10.2946C5.14731 10.4376 5.05199 10.5806 5.00433 10.7236L1.62045 8.48353C0.953206 8.00693 0 8.5312 0 9.38908L0.142981 19.922C0.142981 20.6846 0.905546 21.1612 1.62045 20.8752L11.3432 16.8241C12.1534 16.4905 12.2487 15.4419 11.5338 14.9653L8.19757 12.773C8.24523 12.7253 8.24523 12.7253 8.29289 12.6776C12.773 7.05373 19.4931 3.81282 26.6898 3.81282C39.7487 3.81282 50.3769 14.4411 50.3769 27.5C50.3769 40.5589 39.7487 51.1872 26.6898 51.1872C19.7314 51.1872 13.1542 48.1369 8.62652 42.8466C7.95927 42.0364 6.7201 41.9411 5.95754 42.6083C5.14731 43.2756 5.05199 44.5147 5.71924 45.2773C10.9619 51.4255 18.5875 54.9523 26.6898 54.9523C41.8458 54.9523 54.1898 42.6083 54.1898 27.4523C54.1898 12.2964 41.8934 0 26.6898 0Z" fill="#2979ff"/>
<path d="M34.8402 36.9845C34.4589 36.9845 34.0776 36.8892 33.744 36.6509L25.0221 30.5504C24.4979 30.2168 24.2119 29.5972 24.2119 28.9776V13.6786C24.2119 12.6301 25.0698 11.7722 26.1183 11.7722C27.1669 11.7722 28.0247 12.6301 28.0247 13.6786V27.9767L35.8887 33.5053C36.7466 34.1249 36.9849 35.3164 36.3653 36.1743C36.0317 36.6986 35.4121 36.9845 34.8402 36.9845Z" fill="#2979ff"/>
</g>
<defs>
<clipPath id="clip0">
<rect width="54.1898" height="55" fill="white"/>
</clipPath>
</defs>
</svg>
