<svg width="29" height="34" viewBox="0 0 29 34" fill="none" xmlns="http://www.w3.org/2000/svg">
<path d="M25.1812 6.07451H24.8366C24.8653 5.95936 24.8941 5.8442 24.8941 5.72904C24.9228 2.56224 22.3386 0 19.2089 0C17.2564 0 15.5337 0.978832 14.5 2.47587C13.4663 0.978832 11.7436 0 9.79109 0C6.63267 0 4.07723 2.56224 4.07723 5.72904C4.07723 5.8442 4.10594 5.95936 4.13465 6.07451H3.7901C1.72277 6.07451 0 7.77307 0 9.90347V11.8611C0 12.9839 0.488119 13.9627 1.23465 14.6825V29.5377C1.23465 31.9848 3.24455 34 5.68515 34H23.3149C25.7554 34 27.7653 31.9848 27.7653 29.5377V14.6825C28.5119 13.9915 29 12.9839 29 11.8611V9.90347C29 7.77307 27.2772 6.07451 25.1812 6.07451ZM26.9901 9.90347V11.8611C26.9901 12.8688 26.1861 13.6749 25.1812 13.6749H15.505V8.08976H25.1812C26.1861 8.08976 26.9901 8.89585 26.9901 9.90347ZM19.2089 2.01524C21.2475 2.01524 22.9129 3.68501 22.9129 5.72904C22.9129 5.8442 22.9416 5.95936 22.9703 6.07451H15.4475C15.4762 5.95936 15.505 5.8442 15.505 5.72904C15.505 3.68501 17.1703 2.01524 19.2089 2.01524ZM6.11584 5.72904C6.11584 3.68501 7.75247 2.01524 9.79109 2.01524C11.8297 2.01524 13.495 3.68501 13.495 5.72904C13.495 5.8442 13.5238 5.95936 13.5525 6.07451H6.0297C6.08713 5.95936 6.11584 5.8442 6.11584 5.72904ZM2.0099 9.90347C2.0099 8.89585 2.81386 8.08976 3.81881 8.08976H13.495V13.6749H3.81881C2.81386 13.6749 2.0099 12.8688 2.0099 11.8611V9.90347ZM3.24455 29.5377V15.6901H3.81881H13.495V31.9848H5.68515C4.33564 31.9848 3.24455 30.8908 3.24455 29.5377ZM25.7554 15.6901V29.5377C25.7554 30.8908 24.6644 31.9848 23.3149 31.9848H15.505V15.6901H25.1812H25.7554Z" fill="#2979ff"/>
</svg>
