<svg width="60" height="66" viewBox="0 0 60 66" fill="none" xmlns="http://www.w3.org/2000/svg">
<path d="M30.0223 30.915C24.4241 30.915 19.8643 26.3367 19.8643 20.7158C19.8643 15.0949 24.4241 10.5166 30.0223 10.5166C35.6205 10.5166 40.1803 15.0949 40.1803 20.7158C40.1803 26.3367 35.6205 30.915 30.0223 30.915ZM30.0223 13.2364C25.9139 13.2364 22.5731 16.5908 22.5731 20.7158C22.5731 24.8408 25.9139 28.1952 30.0223 28.1952C34.1306 28.1952 37.4715 24.8408 37.4715 20.7158C37.4715 16.5908 34.1306 13.2364 30.0223 13.2364Z" fill="#2979ff"/>
<path d="M31.9641 36.0371H28.0815C27.4946 36.0371 27.0432 36.5357 27.1334 37.125L27.8106 41.794C27.8106 41.8846 27.8106 41.93 27.8106 42.0206L26.998 50.6333C26.9529 50.9052 27.0883 51.1772 27.2689 51.4039L29.3456 53.489C29.7068 53.897 30.3389 53.897 30.7 53.489L32.7316 51.3585C32.9122 51.1772 33.0025 50.9052 33.0025 50.5879L32.1899 41.9753C32.1899 41.8846 32.1899 41.8393 32.1899 41.7486L32.8671 37.0797C33.0025 36.5357 32.5511 36.0371 31.9641 36.0371Z" fill="#2979ff"/>
<path d="M60 30.1442C60 13.5082 46.5463 0 30.0226 0C13.4989 0 0 13.5082 0 30.1442C0 38.9382 3.79233 47.1882 10.4289 52.9451V62.4643C10.4289 63.3709 10.6546 64.1868 11.0158 65.0027C11.3318 65.6374 11.9639 66 12.6411 66C12.912 66 13.1377 65.9547 13.4086 65.8187L26.0497 59.9712C27.3589 60.1525 28.6682 60.2431 30.0226 60.2431C36.8849 60.2431 43.6117 57.8407 48.8939 53.5343C55.9819 47.7775 60 39.2555 60 30.1442ZM26.0497 56.3448C25.6433 56.2994 25.2822 56.3448 24.9661 56.5261L14.0858 61.5577V52.1291V45.919C14.0858 41.0234 18.0587 37.0343 22.9345 37.0343H23.8826C25.8691 37.8956 27.9007 38.3036 30.0226 38.3036C32.1445 38.3036 34.2212 37.8956 36.1625 37.0343H37.1106C41.9865 37.0343 45.9594 41.0234 45.9594 45.919V51.2225C41.3996 54.7129 35.7562 56.6168 30.0226 56.6168C28.6682 56.6168 27.3589 56.5261 26.0497 56.3448ZM37.1106 33.408H35.8014C35.5305 33.408 35.3047 33.4533 35.0339 33.5893C33.4537 34.3146 31.7381 34.6772 30.0226 34.6772C28.307 34.6772 26.5914 34.3146 25.0113 33.5893C24.7856 33.4986 24.5147 33.408 24.2438 33.408H22.9345C16.0722 33.408 10.474 39.0288 10.474 45.919V47.9135C6.04966 43.0632 3.61174 36.7624 3.61174 30.1442C3.61174 15.5027 15.4402 3.62637 30.0226 3.62637C44.605 3.62637 56.4334 15.5027 56.4334 30.1442C56.4334 36.8077 53.9955 43.1085 49.6163 47.9135V45.919C49.5711 39.0288 43.9729 33.408 37.1106 33.408Z" fill="#2979ff"/>
</svg>
