<svg width="36" height="34" viewBox="0 0 36 34" fill="none" xmlns="http://www.w3.org/2000/svg">
<path d="M26.2008 34C25.5874 34 24.974 33.854 24.3898 33.5619L18.2558 30.3488C17.8761 30.1443 17.4379 30.1443 17.0874 30.3488L10.9534 33.5619C9.63896 34.2629 8.06164 34.146 6.86405 33.2698C5.66645 32.3935 5.05305 30.933 5.31594 29.4725L6.48432 22.6667C6.54274 22.2577 6.4259 21.8488 6.13381 21.5567L1.16817 16.6787C0.087414 15.6271 -0.263101 14.1082 0.175043 12.7062C0.613187 11.3041 1.83999 10.2818 3.30047 10.0481L10.1647 9.05498C10.5737 8.99656 10.9242 8.73368 11.0994 8.35395L14.1957 2.16151C14.8383 0.817869 16.1819 0 17.6716 0C19.1613 0 20.5049 0.817869 21.1476 2.16151L24.2146 8.35395C24.3898 8.73368 24.7403 8.99656 25.1493 9.05498L31.9843 10.0481C33.4448 10.2526 34.6716 11.2749 35.1097 12.7062C35.5479 14.1375 35.1974 15.6564 34.1166 16.6787L29.151 21.4983C28.8589 21.7904 28.7128 22.1993 28.8005 22.6082L29.9689 29.4141C30.2317 30.8746 29.6183 32.3351 28.4207 33.2113C27.7781 33.7371 26.9895 34 26.2008 34ZM17.6716 27.5447C18.285 27.5447 18.9276 27.6907 19.4826 27.9828L25.6166 31.1959C26.0548 31.4296 26.5513 31.4003 26.9311 31.1082C27.34 30.8162 27.5152 30.3488 27.4276 29.8814L26.2592 23.0756C26.0548 21.8196 26.4637 20.5344 27.3692 19.6289L32.3348 14.8093C32.6853 14.4588 32.8022 13.9914 32.6561 13.5241C32.5101 13.0567 32.1304 12.7354 31.6338 12.677L24.7988 11.6838C23.5427 11.5086 22.4328 10.6907 21.8778 9.55155L18.7816 3.3299C18.5771 2.89175 18.1682 2.62887 17.6716 2.62887C17.175 2.62887 16.7661 2.89175 16.5324 3.3299L13.4654 9.52234C12.9104 10.6615 11.8005 11.4502 10.5445 11.6546L3.70941 12.6478C3.21284 12.7062 2.83312 13.0275 2.68707 13.4948C2.54102 13.9622 2.65786 14.4296 3.00838 14.7801L7.97401 19.5997C8.87951 20.5052 9.31765 21.7904 9.08398 23.0464L7.91559 29.8522C7.82796 30.3488 8.03243 30.7869 8.41216 31.079C8.82109 31.3711 9.31765 31.4003 9.72659 31.1667L15.8606 27.9536C16.4156 27.6907 17.0582 27.5447 17.6716 27.5447Z" fill="#2979ff"/>
</svg>
