<svg width="34" height="34" viewBox="0 0 34 34" fill="none" xmlns="http://www.w3.org/2000/svg">
<path d="M17 0C7.62289 0 0 7.62289 0 17C0 26.3771 7.62289 34 17 34C26.3771 34 34 26.3771 34 17C34 7.62289 26.3771 0 17 0ZM17 31.7674C8.86679 31.7674 2.23265 25.1332 2.23265 17C2.23265 8.86679 8.86679 2.23265 17 2.23265C25.1332 2.23265 31.7674 8.86679 31.7674 17C31.7674 25.1332 25.1332 31.7674 17 31.7674Z" fill="#2979ff"/>
<path d="M17.5107 15.9155V12.5984C18.0848 12.726 18.6589 12.9811 19.2968 13.3639C19.4563 13.4596 19.6476 13.5233 19.8071 13.5233C20.3493 13.5233 20.764 13.1087 20.764 12.5665C20.764 12.1519 20.5088 11.8967 20.2536 11.7372C19.4244 11.2269 18.5951 10.908 17.5745 10.7804V10.3976C17.5745 9.98301 17.2555 9.66406 16.8409 9.66406C16.4262 9.66406 16.0754 9.98301 16.0754 10.3976V10.7485C13.9065 10.9399 12.4394 12.1838 12.4394 14.0656C12.4394 16.043 13.6195 16.9999 16.1711 17.6378V21.0506C15.1823 20.8592 14.4169 20.5083 13.5876 19.9023C13.4281 19.7748 13.2368 19.711 13.0135 19.711C12.4713 19.711 12.0566 20.1256 12.0566 20.6678C12.0566 21.0187 12.2161 21.3057 12.5351 21.4971C13.5876 22.2307 14.7677 22.7091 16.1073 22.8367V23.9211C16.1073 24.3357 16.4581 24.6547 16.8728 24.6547C17.2874 24.6547 17.6064 24.3357 17.6064 23.9211V22.8686C19.7752 22.6772 21.2743 21.3695 21.2743 19.4877C21.2743 17.6378 20.158 16.5853 17.5107 15.9155ZM16.1392 15.5646C14.7996 15.15 14.4807 14.6716 14.4807 13.938C14.4807 13.1725 15.0229 12.5984 16.1392 12.4708V15.5646ZM17.5107 21.1143V17.9567C18.8503 18.3714 19.233 18.8498 19.233 19.6153C19.233 20.4445 18.627 21.0187 17.5107 21.1143Z" fill="#2979ff"/>
</svg>
