<svg width="90" height="90" viewBox="0 0 90 90" fill="none" xmlns="http://www.w3.org/2000/svg">
<path d="M54.4356 36.1687L48.5997 40.4016L50.8356 47.264L44.9997 43.0312L39.1637 47.264L41.3997 40.4016L35.5637 36.1687H42.7778L44.9997 29.3203L47.2215 36.1687H54.4356Z" fill="#FFE15A"/>
<path d="M85.9918 43.1438L84.8668 45.436C84.2893 46.6003 83.3268 47.529 82.1427 48.0647C80.9586 48.6004 79.6257 48.71 78.3699 48.3751L76.0215 47.7423L76.3871 46.3923C76.578 45.6784 76.9078 45.0091 77.3575 44.4228C77.8071 43.8364 78.3679 43.3443 79.0079 42.9747C79.6478 42.6052 80.3542 42.3653 81.0869 42.2688C81.8195 42.1724 82.564 42.2212 83.2777 42.4126L85.9918 43.1438Z" fill="#00594D"/>
<path d="M83.6153 53.6764L81.9278 55.603C81.0691 56.5773 79.8997 57.2246 78.6181 57.4348C77.3364 57.6449 76.0215 57.4052 74.8966 56.7561L72.8013 55.5467L73.5044 54.3233C74.2513 53.0338 75.4792 52.0934 76.9188 51.7085C78.3583 51.3236 79.8918 51.5256 81.1825 52.2701L83.6153 53.6764Z" fill="#00594D"/>
<path d="M85.0633 34.8469C84.8097 36.1226 84.1218 37.271 83.1167 38.0966C82.1116 38.9222 80.8515 39.374 79.5508 39.375H77.1321V37.9688C77.1321 36.4769 77.7247 35.0462 78.7796 33.9913C79.8345 32.9364 81.2652 32.3437 82.7571 32.3438H85.5696L85.0633 34.8469Z" fill="#00594D"/>
<path d="M78.5956 63.24L76.4581 64.6603C75.3783 65.3826 74.0811 65.7073 72.7884 65.5791C71.4956 65.4508 70.2875 64.8775 69.3707 63.9572L67.655 62.2415L68.6535 61.2572C69.1735 60.7326 69.7924 60.3162 70.4742 60.032C71.156 59.7479 71.8874 59.6016 72.6261 59.6016C73.3648 59.6016 74.0962 59.7479 74.778 60.032C75.4599 60.3162 76.0787 60.7326 76.5988 61.2572L78.5956 63.24Z" fill="#00594D"/>
<path d="M78.3705 30.3746L76.0221 31.0074L75.6565 29.6434C75.2727 28.2019 75.4762 26.6672 76.2222 25.3755C76.9682 24.0838 78.1959 23.1407 79.6362 22.7527L82.3502 22.0215L82.519 24.5809C82.6028 25.8771 82.2354 27.1623 81.4792 28.2184C80.723 29.2745 79.6246 30.0364 78.3705 30.3746Z" fill="#00594D"/>
<path d="M72.0982 21.9789C71.7281 21.3402 71.4875 20.6347 71.3904 19.9028C71.2932 19.171 71.3414 18.4272 71.5321 17.714C71.7228 17.0008 72.0523 16.3322 72.5018 15.7465C72.9512 15.1608 73.5118 14.6695 74.1514 14.3008L76.5842 12.8945L77.3998 15.3133C77.8224 16.5442 77.8038 17.8837 77.3471 19.1024C76.8904 20.3211 76.0241 21.343 74.8967 21.993L72.8014 23.2023L72.0982 21.9789Z" fill="#00594D"/>
<path d="M69.8618 68.7376L71.268 71.1704L68.8352 72C67.6044 72.4145 66.268 72.3902 65.053 71.9314C63.838 71.4726 62.8192 70.6074 62.1696 69.4829L60.9602 67.3875L62.1696 66.6844C62.8093 66.3135 63.5159 66.0725 64.2489 65.9749C64.9819 65.8774 65.7269 65.9253 66.4414 66.116C67.1558 66.3067 67.8257 66.6364 68.4126 67.0863C68.9995 67.5361 69.4919 68.0972 69.8618 68.7376Z" fill="#00594D"/>
<path d="M69.5378 19.2375C68.0975 18.8496 66.8698 17.9064 66.1238 16.6147C65.3778 15.323 65.1743 13.7883 65.5581 12.3469L66.2893 9.63281L68.5815 10.7578C69.748 11.3329 70.6787 12.2949 71.2147 13.4798C71.7507 14.6647 71.8588 15.9989 71.5206 17.2547L70.9018 19.6031L69.5378 19.2375Z" fill="#517A75"/>
<path d="M62.1289 76.95L59.5835 77.1047C58.2863 77.1939 56.9984 76.8287 55.9412 76.0717C54.8839 75.3147 54.1232 74.2131 53.7898 72.9563L53.157 70.6219L54.521 70.2563C55.2339 70.0649 55.9775 70.0161 56.7092 70.1126C57.441 70.2092 58.1465 70.4492 58.7853 70.8189C59.4241 71.1886 59.9837 71.6807 60.432 72.2671C60.8803 72.8535 61.2084 73.5226 61.3976 74.236L62.1289 76.95Z" fill="#00594D"/>
<path d="M44.7883 71.7188H46.1946C47.6864 71.7188 49.1172 72.3114 50.1721 73.3663C51.227 74.4212 51.8196 75.8519 51.8196 77.3438V80.1562L49.3024 79.65C48.0276 79.397 46.8803 78.7088 46.0568 77.7032C45.2334 76.6977 44.785 75.4372 44.7883 74.1375V71.7188Z" fill="#00594D"/>
<path d="M35.0564 70.2563L36.4064 70.622L35.7877 72.9563C35.4526 74.2122 34.6915 75.3126 33.6346 76.0693C32.5778 76.8261 31.2908 77.1921 29.9939 77.1048L27.4346 76.9501L28.1658 74.236C28.3568 73.5221 28.6865 72.8529 29.1362 72.2665C29.5858 71.6801 30.1467 71.1881 30.7866 70.8185C31.4265 70.4489 32.1329 70.209 32.8656 70.1126C33.5982 70.0161 34.3427 70.065 35.0564 70.2563Z" fill="#00594D"/>
<path d="M20.9246 61.2552L21.909 62.2396L20.2074 63.9552C19.2877 64.8757 18.0773 65.4489 16.7824 65.5771C15.4875 65.7053 14.1882 65.3806 13.1059 64.6583L10.9824 63.238L12.9652 61.2552C13.4867 60.7305 14.1068 60.3142 14.7898 60.03C15.4727 59.7459 16.2052 59.5996 16.9449 59.5996C17.6847 59.5996 18.4171 59.7459 19.1001 60.03C19.7831 60.3142 20.4031 60.7305 20.9246 61.2552Z" fill="#00594D"/>
<path d="M28.6169 67.3875L27.4075 69.4829C26.7554 70.6086 25.734 71.4741 24.5167 71.9329C23.2993 72.3917 21.9607 72.4154 20.7278 72.0001L18.3091 71.1704L19.7153 68.7375C20.0841 68.098 20.5754 67.5374 21.161 67.088C21.7467 66.6385 22.4153 66.309 23.1285 66.1183C23.8417 65.9276 24.5855 65.8794 25.3174 65.9765C26.0492 66.0737 26.7547 66.3142 27.3935 66.6844L28.6169 67.3875Z" fill="#00594D"/>
<path d="M44.7883 71.7188V74.1375C44.7873 75.4382 44.3355 76.6983 43.5099 77.7034C42.6843 78.7085 41.5359 79.3964 40.2602 79.65L37.7571 80.1562V77.3438C37.7571 75.8519 38.3497 74.4212 39.4046 73.3663C40.4595 72.3114 41.8902 71.7188 43.3821 71.7188H44.7883Z" fill="#00594D"/>
<path d="M16.0735 54.3232L16.7766 55.5466L14.6813 56.756C13.5539 57.4051 12.237 57.6448 10.9532 57.4347C9.66942 57.2246 8.49761 56.5775 7.63599 55.6029L5.94849 53.6763L8.3813 52.2701C9.67437 51.5256 11.2097 51.3236 12.6513 51.7084C14.0929 52.0932 15.3234 53.0334 16.0735 54.3232Z" fill="#00594D"/>
<path d="M13.1762 46.3923L13.5418 47.7423L11.2075 48.3751C9.95173 48.7114 8.61826 48.6024 7.43382 48.0666C6.24938 47.5307 5.28709 46.6012 4.7106 45.436L3.57153 43.1438L6.2856 42.4126C6.99935 42.2212 7.74382 42.1724 8.47647 42.2688C9.20911 42.3653 9.91557 42.6052 10.5555 42.9747C11.1954 43.3443 11.7562 43.8364 12.2059 44.4228C12.6556 45.0091 12.9853 45.6784 13.1762 46.3923Z" fill="#00594D"/>
<path d="M12.4446 37.9688V39.375H10.0258C8.72372 39.3735 7.46218 38.9218 6.45497 38.0966C5.44776 37.2713 4.75683 36.1233 4.49927 34.8469L4.00708 32.3438H6.81958C8.31142 32.3438 9.74217 32.9364 10.7971 33.9913C11.852 35.0462 12.4446 36.4769 12.4446 37.9688Z" fill="#00594D"/>
<path d="M9.92903 22.7527C11.3693 23.1407 12.597 24.0838 13.343 25.3755C14.089 26.6672 14.2925 28.2019 13.9087 29.6434L13.5431 31.0074L11.2087 30.3746C9.95284 30.0376 8.85219 29.2766 8.0935 28.2206C7.33481 27.1646 6.96479 25.8786 7.04622 24.5809L7.21497 22.0215L9.92903 22.7527Z" fill="#00594D"/>
<path d="M77.1321 37.9688V39.375H74.7133C73.4112 39.3735 72.1497 38.9218 71.1425 38.0966C70.1353 37.2713 69.4443 36.1233 69.1868 34.8469L68.6946 32.3438H71.5071C72.9989 32.3438 74.4297 32.9364 75.4846 33.9913C76.5395 35.0462 77.1321 36.4769 77.1321 37.9688Z" fill="#467971"/>
<path d="M75.6547 29.6427L76.0204 31.0067L73.686 31.6255C72.4302 31.9637 71.096 31.8556 69.9111 31.3196C68.7262 30.7836 67.7641 29.8529 67.1891 28.6864L66.05 26.3942L68.7782 25.663C70.2177 25.2808 71.7501 25.4851 73.0392 26.2311C74.3284 26.9772 75.269 28.2041 75.6547 29.6427Z" fill="#467971"/>
<path d="M73.6865 47.1246C72.4316 46.786 71.332 46.0245 70.5736 44.9689C69.8152 43.9133 69.4445 42.6282 69.524 41.3309L69.6928 38.7715L72.4068 39.5027C73.1207 39.6937 73.7899 40.0234 74.3763 40.4731C74.9627 40.9228 75.4548 41.4836 75.8243 42.1235C76.1939 42.7634 76.4338 43.4698 76.5303 44.2025C76.6267 44.9351 76.5779 45.6796 76.3865 46.3934L76.0209 47.7434L73.6865 47.1246Z" fill="#467971"/>
<path d="M73.503 54.3227L72.7998 55.5461L70.7045 54.3367C69.5755 53.6879 68.7071 52.6669 68.2479 51.4483C67.7887 50.2298 67.7673 48.8896 68.1873 47.657L69.003 45.2383L71.4358 46.6445C72.7276 47.389 73.671 48.616 74.0586 50.0557C74.4462 51.4955 74.2464 53.0302 73.503 54.3227Z" fill="#467971"/>
<path d="M68.6521 53.2973C69.7056 54.3538 70.2972 55.7849 70.2972 57.277C70.2972 58.769 69.7056 60.2001 68.6521 61.2566L67.6536 62.241L65.938 60.5395C65.0232 59.6165 64.4539 58.4067 64.3259 57.1135C64.1978 55.8203 64.5188 54.5224 65.2349 53.4379L66.6552 51.3145L68.6521 53.2973Z" fill="#467971"/>
<path d="M72.0967 21.9794L72.7998 23.2028L70.7045 24.4122C69.5773 25.0618 68.2602 25.3018 66.9763 25.0917C65.6923 24.8815 64.5205 24.2341 63.6592 23.2591L61.9717 21.3325L64.4045 19.9263C65.6977 19.1825 67.2328 18.981 68.6742 19.3657C70.1156 19.7505 71.3461 20.6901 72.0967 21.9794Z" fill="#467971"/>
<path d="M62.8316 56.5586L64.2378 58.9914C64.9834 60.2857 65.1845 61.823 64.7968 63.2655C64.4092 64.708 63.4645 65.9374 62.1706 66.6836L60.9612 67.3867L59.7519 65.2914C59.0991 64.165 58.8572 62.8471 59.0675 61.5624C59.2778 60.2776 59.9272 59.1056 60.905 58.2461L62.8316 56.5586Z" fill="#467971"/>
<path d="M57.7691 60.6523L58.4863 63.3664C58.6791 64.0792 58.7294 64.8231 58.6343 65.5554C58.5393 66.2877 58.3008 66.9941 57.9324 67.6341C57.5641 68.2741 57.0732 68.8352 56.4877 69.2853C55.9023 69.7354 55.2339 70.0656 54.5207 70.257L53.1566 70.6227L52.5238 68.2742C52.1916 67.0169 52.3041 65.6833 52.8423 64.4994C53.3804 63.3154 54.3112 62.3538 55.4769 61.7773L57.7691 60.6523Z" fill="#467971"/>
<path d="M23.5128 26.3958L22.3737 28.688C21.7997 29.8553 20.8378 30.7869 19.6526 31.323C18.4673 31.8592 17.1326 31.9667 15.8769 31.627L13.5425 31.0083L13.9081 29.6442C14.099 28.9304 14.4288 28.2611 14.8785 27.6747C15.3281 27.0883 15.8889 26.5963 16.5289 26.2267C17.1688 25.8571 17.8752 25.6172 18.6079 25.5208C19.3405 25.4243 20.085 25.4732 20.7987 25.6645L23.5128 26.3958Z" fill="#467971"/>
<path d="M29.8264 65.2914L28.617 67.3867L27.3936 66.6836C26.7532 66.3138 26.1921 65.8213 25.7423 65.2344C25.2924 64.6475 24.9627 63.9777 24.772 63.2632C24.5814 62.5488 24.5334 61.8037 24.6309 61.0707C24.7285 60.3377 24.9696 59.6311 25.3404 58.9914L26.7467 56.5586L28.6592 58.2461C29.6393 59.1038 30.2914 60.2749 30.5042 61.5598C30.7171 62.8446 30.4775 64.1635 29.8264 65.2914Z" fill="#467971"/>
<path d="M44.7883 69.3C44.785 68.0003 45.2334 66.7398 46.0568 65.7343C46.8803 64.7287 48.0276 64.0405 49.3024 63.7875L51.8196 63.2812V66.0938C51.8196 67.5856 51.227 69.0163 50.1721 70.0712C49.1172 71.1261 47.6864 71.7188 46.1946 71.7188H44.7883V69.3Z" fill="#467971"/>
<path d="M34.0996 61.7773C35.2639 62.3549 36.1926 63.3173 36.7283 64.5014C37.2639 65.6855 37.3736 67.0185 37.0387 68.2742L36.4058 70.6227L35.0558 70.257C34.342 70.0661 33.6727 69.7364 33.0863 69.2867C32.4999 68.837 32.0079 68.2762 31.6383 67.6363C31.2687 66.9964 31.0289 66.2899 30.9324 65.5573C30.8359 64.8246 30.8848 64.0802 31.0762 63.3664L31.8074 60.6523L34.0996 61.7773Z" fill="#467971"/>
<path d="M44.7883 69.3V71.7188H43.3821C41.8902 71.7188 40.4595 71.1261 39.4046 70.0712C38.3497 69.0163 37.7571 67.5856 37.7571 66.0938V63.2812L40.2602 63.7875C41.5359 64.0411 42.6843 64.729 43.5099 65.7341C44.3355 66.7392 44.7873 67.9993 44.7883 69.3Z" fill="#467971"/>
<path d="M23.6251 60.5395L21.9095 62.241L20.9251 61.2566C20.4005 60.7352 19.9841 60.1151 19.6999 59.4321C19.4158 58.7491 19.2695 58.0167 19.2695 57.277C19.2695 56.5372 19.4158 55.8048 19.6999 55.1218C19.9841 54.4388 20.4005 53.8187 20.9251 53.2973L22.9079 51.3145L24.3283 53.4379C25.0505 54.5202 25.3752 55.8195 25.247 57.1144C25.1188 58.4093 24.5456 59.6197 23.6251 60.5395Z" fill="#467971"/>
<path d="M18.8705 54.3367L16.7752 55.5461L16.0721 54.3227C15.7019 53.6839 15.4614 52.9784 15.3642 52.2466C15.2671 51.5147 15.3153 50.7709 15.506 50.0577C15.6967 49.3445 16.0262 48.6759 16.4756 48.0902C16.9251 47.5046 17.4857 47.0133 18.1252 46.6445L20.558 45.2383L21.3877 47.657C21.8044 48.8898 21.7814 50.2289 21.3225 51.4466C20.8636 52.6643 19.9972 53.6855 18.8705 54.3367Z" fill="#467971"/>
<path d="M20.3758 34.8469C20.1222 36.1226 19.4343 37.271 18.4292 38.0966C17.4241 38.9222 16.164 39.374 14.8633 39.375H12.4446V37.9688C12.4446 36.4769 13.0372 35.0462 14.0921 33.9913C15.147 32.9364 16.5777 32.3437 18.0696 32.3438H20.8821L20.3758 34.8469Z" fill="#467971"/>
<path d="M15.8748 47.1246L13.5404 47.7434L13.1748 46.3934C12.9834 45.6796 12.9346 44.9351 13.031 44.2025C13.1275 43.4698 13.3674 42.7634 13.7369 42.1235C14.1065 41.4836 14.5986 40.9228 15.185 40.4731C15.7714 40.0234 16.4406 39.6937 17.1545 39.5027L19.8685 38.7715L20.0373 41.3309C20.1168 42.6282 19.7461 43.9133 18.9877 44.9689C18.2293 46.0245 17.1297 46.786 15.8748 47.1246Z" fill="#467971"/>
<path d="M27.5895 21.3326L25.902 23.2592C25.0433 24.2336 23.8738 24.8808 22.5922 25.091C21.3105 25.3012 19.9956 25.0614 18.8707 24.4123L16.7754 23.203L17.4785 21.9795C18.2254 20.6901 19.4534 19.7497 20.8929 19.3648C22.3324 18.9798 23.8659 19.1818 25.1566 19.9264L27.5895 21.3326Z" fill="#467971"/>
<path d="M17.4804 21.9789L16.7772 23.2023L14.6819 21.993C13.5553 21.3418 12.6888 20.3206 12.23 19.1028C11.7711 17.8851 11.748 16.5461 12.1647 15.3133L12.9804 12.8945L15.4132 14.3008C16.705 15.0453 17.6484 16.2722 18.036 17.712C18.4236 19.1517 18.2238 20.6864 17.4804 21.9789Z" fill="#00594D"/>
<path d="M24.4409 12.3469C24.8247 13.7883 24.6212 15.323 23.8752 16.6147C23.1292 17.9064 21.9015 18.8496 20.4612 19.2375L19.0972 19.6031L18.4784 17.2547C18.1402 15.9989 18.2483 14.6647 18.7843 13.4798C19.3203 12.2949 20.251 11.3329 21.4175 10.7578L23.7097 9.63281L24.4409 12.3469Z" fill="#517A75"/>
<path d="M52.6715 54.1979L51.3918 51.692C53.7022 50.5144 55.642 48.721 56.9968 46.5099C58.3515 44.2988 59.0685 41.7561 59.0685 39.163C59.0685 36.5698 58.3515 34.0272 56.9968 31.8161C55.642 29.605 53.7022 27.8115 51.3918 26.634L52.6715 24.1309C55.4433 25.5442 57.7704 27.6962 59.3957 30.3493C61.0209 33.0023 61.8811 36.0531 61.8811 39.1644C61.8811 42.2757 61.0209 45.3264 59.3957 47.9795C57.7704 50.6325 55.4433 52.7846 52.6715 54.1979Z" fill="#F2C94C"/>
<path d="M37.3282 54.1979C34.5564 52.7846 32.2293 50.6325 30.6041 47.9795C28.9788 45.3264 28.1187 42.2757 28.1187 39.1644C28.1187 36.0531 28.9788 33.0023 30.6041 30.3493C32.2293 27.6962 34.5564 25.5442 37.3282 24.1309L38.6079 26.634C36.2975 27.8115 34.3578 29.605 33.003 31.8161C31.6482 34.0272 30.9312 36.5698 30.9312 39.163C30.9312 41.7561 31.6482 44.2988 33.003 46.5099C34.3578 48.721 36.2975 50.5144 38.6079 51.692L37.3282 54.1979Z" fill="#F2C94C"/>
</svg>
