<svg xmlns="http://www.w3.org/2000/svg" width="17.993" height="18" viewBox="0 0 17.993 18">
  <path id="Path_17" data-name="Path 17" d="M7.432-512a8.087,8.087,0,0,0-4.22,1.639A10.747,10.747,0,0,0,1.8-508.947a7.918,7.918,0,0,0-1.5,6.418,7.965,7.965,0,0,0,3.978,5.388,7.9,7.9,0,0,0,8.574-.637l.281-.215,1.917,1.91c1.055,1.052,1.962,1.938,2.015,1.973a.771.771,0,0,0,.6.042.825.825,0,0,0,.443-.461.83.83,0,0,0-.056-.57c-.035-.053-.921-.96-1.973-2.015l-1.91-1.917.215-.281a7.922,7.922,0,0,0-2.8-11.88A8.1,8.1,0,0,0,7.432-512Zm1.519,1.509a6.461,6.461,0,0,1,5.567,6.4,6.451,6.451,0,0,1-6.454,6.454A6.437,6.437,0,0,1,2.3-501.193a6.422,6.422,0,0,1-.313-5.082,6.509,6.509,0,0,1,2.641-3.285,7.05,7.05,0,0,1,1.836-.8A7.057,7.057,0,0,1,8.951-510.491Z" transform="translate(-0.139 512.025)" fill="#424245"/>
</svg>
